<?xml version="1.0" encoding="UTF-8" standalone="no"?>
<!-- Created with Inkscape (http://www.inkscape.org/) -->

<svg
   width="38.660217mm"
   height="50.03701mm"
   viewBox="0 0 38.660217 50.03701"
   version="1.1"
   id="svg1"
   xml:space="preserve"
   inkscape:version="1.3.2 (091e20e, 2023-11-25)"
   sodipodi:docname="chiotnoirpourWebsite.svg"
   xmlns:inkscape="http://www.inkscape.org/namespaces/inkscape"
   xmlns:sodipodi="http://sodipodi.sourceforge.net/DTD/sodipodi-0.dtd"
   xmlns="http://www.w3.org/2000/svg"
   xmlns:svg="http://www.w3.org/2000/svg"><sodipodi:namedview
     id="namedview1"
     pagecolor="#ffffff"
     bordercolor="#000000"
     borderopacity="0.25"
     inkscape:showpageshadow="2"
     inkscape:pageopacity="0.0"
     inkscape:pagecheckerboard="0"
     inkscape:deskcolor="#d1d1d1"
     inkscape:document-units="mm"
     inkscape:zoom="0.6958575"
     inkscape:cx="-60.357185"
     inkscape:cy="-30.897131"
     inkscape:window-width="1440"
     inkscape:window-height="872"
     inkscape:window-x="0"
     inkscape:window-y="0"
     inkscape:window-maximized="0"
     inkscape:current-layer="layer1" /><defs
     id="defs1"><inkscape:path-effect
       effect="envelope"
       id="path-effect11"
       is_visible="true"
       lpeversion="1"
       yy="true"
       xx="true"
       bendpath1="M 33.866669,91.882749 65.045227,82.757843"
       bendpath2="M 65.045222,82.757798 V 113.9364"
       bendpath3="M 33.866666,113.9364 65.045225,103.50931"
       bendpath4="M 33.866666,82.757798 V 113.9364"
       bendpath1-nodetypes="cc"
       bendpath3-nodetypes="cc" /><inkscape:path-effect
       effect="fillet_chamfer"
       id="path-effect10"
       is_visible="true"
       lpeversion="1"
       nodesatellites_param="F,0,0,1,0,0,0,1 @ F,0,0,1,0,0,0,1 @ F,0,0,1,0,0,0,1 @ F,0,0,1,0,0,0,1 @ F,0,0,1,0,0,0,1 @ F,0,0,1,0,0,0,1 @ F,0,0,1,0,0,0,1 @ F,0,0,1,0,0,0,1 @ F,0,0,1,0,0,0,1 @ F,0,0,1,0,0,0,1 @ F,0,0,1,0,0,0,1 @ F,0,0,1,0,0,0,1 @ F,0,0,1,0,0,0,1 @ F,0,0,1,0,0,0,1 @ F,0,0,1,0,0,0,1 @ F,0,0,1,0,0,0,1 @ F,0,0,1,0,0,0,1 @ F,0,0,1,0,0,0,1 @ F,0,0,1,0,0,0,1 @ F,0,0,1,0,0,0,1 @ F,0,0,1,0,0,0,1 @ F,0,0,1,0,0,0,1 @ F,0,0,1,0,0,0,1 @ F,0,0,1,0,0,0,1 @ F,0,0,1,0,0,0,1 @ F,0,0,1,0,0,0,1 @ F,0,0,1,0,0,0,1 @ F,0,0,1,0,0,0,1 @ F,0,0,1,0,0,0,1 @ F,0,0,1,0,0,0,1 | F,0,0,1,0,0,0,1 @ F,0,0,1,0,0,0,1 @ F,0,0,1,0,0,0,1 @ F,0,0,1,0,0,0,1 @ F,0,0,1,0,0,0,1 @ F,0,0,1,0,0,0,1 @ F,0,0,1,0,0,0,1 @ F,0,0,1,0,0,0,1 @ F,0,0,1,0,0,0,1 @ F,0,0,1,0,0,0,1 @ F,0,0,1,0,0,0,1 @ F,0,0,1,0,0,0,1 @ F,0,0,1,0,0,0,1 @ F,0,0,1,0,0,0,1 @ F,0,0,1,0,0,0,1 @ F,0,0,1,0,0,0,1 @ F,0,0,1,0,0,0,1 @ F,0,0,1,0,0,0,1 @ F,0,0,1,0,0,0,1 @ F,0,0,1,0,0,0,1 @ F,0,0,1,0,0,0,1 @ F,0,0,1,0,0,0,1 @ F,0,0,1,0,0,0,1 @ F,0,0,1,0,0,0,1 @ F,0,0,1,0,0,0,1 @ F,0,0,1,0,0,0,1 @ F,0,0,1,0,0,0,1 @ F,0,0,1,0,0,0,1 @ F,0,0,1,0,0,0,1 @ F,0,0,1,0,0,0,1 @ F,0,0,1,0,0,0,1 @ F,0,0,1,0,0,0,1 @ F,0,0,1,0,0,0,1 @ F,0,0,1,0,0,0,1 @ F,0,0,1,0,0,0,1 @ F,0,0,1,0,0,0,1 @ F,0,0,1,0,0,0,1 @ F,0,0,1,0,0,0,1 @ F,0,0,1,0,0,0,1 @ F,0,0,1,0,0,0,1 @ F,0,0,1,0,0,0,1 @ F,0,0,1,0,0,0,1 @ F,0,0,1,0,0,0,1 @ F,0,0,1,0,0,0,1 | F,0,0,1,0,0,0,1 @ F,0,0,1,0,0,0,1 @ F,0,0,1,0,0,0,1 @ F,0,0,1,0,0,0,1 @ F,0,0,1,0,0,0,1 @ F,0,0,1,0,0,0,1 @ F,0,0,1,0,0,0,1 @ F,0,0,1,0,0,0,1 @ F,0,0,1,0,0,0,1 @ F,0,0,1,0,0,0,1 @ F,0,0,1,0,0,0,1 @ F,0,0,1,0,0,0,1 @ F,0,0,1,0,0,0,1 @ F,0,0,1,0,0,0,1 @ F,0,0,1,0,0,0,1 @ F,0,0,1,0,0,0,1 @ F,0,0,1,0,0,0,1 @ F,0,0,1,0,0,0,1 @ F,0,0,1,0,0,0,1 @ F,0,0,1,0,0,0,1 | F,0,0,1,0,0,0,1 @ F,0,0,1,0,0,0,1 @ F,0,0,1,0,0,0,1 @ F,0,0,1,0,0,0,1 @ F,0,0,1,0,0,0,1 @ F,0,0,1,0,0,0,1 @ F,0,0,1,0,0,0,1 @ F,0,0,1,0,0,0,1 @ F,0,0,1,0,0,0,1 @ F,0,0,1,0,0,0,1 @ F,0,0,1,0,0,0,1 @ F,0,0,1,0,0,0,1 | F,0,0,1,0,0,0,1 @ F,0,0,1,0,0,0,1 @ F,0,0,1,0,0,0,1 @ F,0,0,1,0,0,0,1 @ F,0,0,1,0,0,0,1 @ F,0,0,1,0,0,0,1 @ F,0,0,1,0,0,0,1 @ F,0,0,1,0,0,0,1 @ F,0,0,1,0,0,0,1 @ F,0,0,1,0,0,0,1 @ F,0,0,1,0,0,0,1 @ F,0,0,1,0,0,0,1 @ F,0,0,1,0,0,0,1 @ F,0,0,1,0,0,0,1 @ F,0,0,1,0,0,0,1 @ F,0,0,1,0,0,0,1 | F,0,0,1,0,0,0,1 @ F,0,0,1,0,0,0,1 @ F,0,0,1,0,0,0,1 @ F,0,0,1,0,0,0,1 @ F,0,0,1,0,0,0,1 @ F,0,0,1,0,0,0,1 @ F,0,0,1,0,0,0,1 @ F,0,0,1,0,0,0,1 @ F,0,0,1,0,0,0,1 @ F,0,0,1,0,0,0,1 @ F,0,0,1,0,0,0,1 @ F,0,0,1,0,0,0,1 @ F,0,0,1,0,0,0,1 @ F,0,0,1,0,0,0,1 @ F,0,0,1,0,0,0,1 @ F,0,0,1,0,0,0,1 @ F,0,0,1,0,0,0,1 @ F,0,0,1,0,0,0,1 @ F,0,0,1,0,0,0,1 @ F,0,0,1,0,0,0,1 @ F,0,0,1,0,0,0,1 @ F,0,0,1,0,0,0,1 @ F,0,0,1,0,0,0,1 | F,0,0,1,0,0,0,1 @ F,0,0,1,0,0,0,1 @ F,0,0,1,0,0,0,1 @ F,0,0,1,0,0,0,1 @ F,0,0,1,0,0,0,1 @ F,0,0,1,0,0,0,1 @ F,0,0,1,0,0,0,1 @ F,0,0,1,0,0,0,1 @ F,0,0,1,0,0,0,1 @ F,0,0,1,0,0,0,1 @ F,0,0,1,0,0,0,1 @ F,0,0,1,0,0,0,1 @ F,0,0,1,0,0,0,1 @ F,0,0,1,0,0,0,1 @ F,0,0,1,0,0,0,1 @ F,0,0,1,0,0,0,1 @ F,0,0,1,0,0,0,1 @ F,0,0,1,0,0,0,1 @ F,0,0,1,0,0,0,1 @ F,0,0,1,0,0,0,1 @ F,0,0,1,0,0,0,1 @ F,0,0,1,0,0,0,1 @ F,0,0,1,0,0,0,1 @ F,0,0,1,0,0,0,1 @ F,0,0,1,0,0,0,1 | F,0,0,1,0,0,0,1 @ F,0,0,1,0,0,0,1 @ F,0,0,1,0,0,0,1 @ F,0,0,1,0,0,0,1 @ F,0,0,1,0,0,0,1 @ F,0,0,1,0,0,0,1 @ F,0,0,1,0,0,0,1 @ F,0,0,1,0,0,0,1 @ F,0,0,1,0,0,0,1 @ F,0,0,1,0,0,0,1 @ F,0,0,1,0,0,0,1 @ F,0,0,1,0,0,0,1 | F,0,0,1,0,0,0,1 @ F,0,0,1,0,0,0,1 @ F,0,0,1,0,0,0,1 @ F,0,0,1,0,0,0,1 @ F,0,0,1,0,0,0,1 @ F,0,0,1,0,0,0,1 @ F,0,0,1,0,0,0,1 @ F,0,0,1,0,0,0,1 @ F,0,0,1,0,0,0,1 @ F,0,0,1,0,0,0,1 @ F,0,0,1,0,0,0,1 @ F,0,0,1,0,0,0,1 @ F,0,0,1,0,0,0,1 @ F,0,0,1,0,0,0,1 @ F,0,0,1,0,0,0,1 @ F,0,0,1,0,0,0,1 | F,0,0,1,0,0,0,1 @ F,0,0,1,0,0,0,1 @ F,0,0,1,0,0,0,1 @ F,0,0,1,0,0,0,1 @ F,0,0,1,0,0,0,1 @ F,0,0,1,0,0,0,1 @ F,0,0,1,0,0,0,1 @ F,0,0,1,0,0,0,1 @ F,0,0,1,0,0,0,1 @ F,0,0,1,0,0,0,1 @ F,0,0,1,0,0,0,1 @ F,0,0,1,0,0,0,1 @ F,0,0,1,0,0,0,1 @ F,0,0,1,0,0,0,1 @ F,0,0,1,0,0,0,1 @ F,0,0,1,0,0,0,1 @ F,0,0,1,0,0,0,1 @ F,0,0,1,0,0,0,1 @ F,0,0,1,0,0,0,1 @ F,0,0,1,0,0,0,1 | F,0,0,1,0,0,0,1 @ F,0,0,1,0,0,0,1 @ F,0,0,1,0,0,0,1 @ F,0,0,1,0,0,0,1 @ F,0,0,1,0,0,0,1 @ F,0,0,1,0,0,0,1 @ F,0,0,1,0,0,0,1 @ F,0,0,1,0,0,0,1 @ F,0,0,1,0,0,0,1 @ F,0,0,1,0,0,0,1 @ F,0,0,1,0,0,0,1 @ F,0,0,1,0,0,0,1 @ F,0,0,1,0,0,0,1 @ F,0,0,1,0,0,0,1 @ F,0,0,1,0,0,0,1 @ F,0,0,1,0,0,0,1 @ F,0,0,1,0,0,0,1 @ F,0,0,1,0,0,0,1 @ F,0,0,1,0,0,0,1 @ F,0,0,1,0,0,0,1 @ F,0,0,1,0,0,0,1 @ F,0,0,1,0,0,0,1 @ F,0,0,1,0,0,0,1 @ F,0,0,1,0,0,0,1 @ F,0,0,1,0,0,0,1 @ F,0,0,1,0,0,0,1 @ F,0,0,1,0,0,0,1 @ F,0,0,1,0,0,0,1 @ F,0,0,1,0,0,0,1 @ F,0,0,1,0,0,0,1 @ F,0,0,1,0,0,0,1 @ F,0,0,1,0,0,0,1 @ F,0,0,1,0,0,0,1 | F,0,0,1,0,0,0,1 @ F,0,0,1,0,0,0,1 @ F,0,0,1,0,0,0,1 @ F,0,0,1,0,0,0,1 @ F,0,0,1,0,0,0,1 @ F,0,0,1,0,0,0,1 @ F,0,0,1,0,0,0,1"
       radius="0"
       unit="px"
       method="auto"
       mode="F"
       chamfer_steps="1"
       flexible="false"
       use_knot_distance="true"
       apply_no_radius="true"
       apply_with_radius="true"
       only_selected="false"
       hide_knots="false" /><inkscape:path-effect
       effect="perspective-envelope"
       up_left_point="33.866666,82.757798"
       up_right_point="65.045222,82.757798"
       down_left_point="33.866666,113.9364"
       down_right_point="65.045222,113.9364"
       id="path-effect9"
       is_visible="true"
       lpeversion="1"
       deform_type="envelope_deformation"
       horizontal_mirror="false"
       vertical_mirror="false"
       overflow_perspective="false" /><inkscape:path-effect
       effect="perspective-envelope"
       up_left_point="33.866666,82.757798"
       up_right_point="65.045222,82.757798"
       down_left_point="33.866666,113.9364"
       down_right_point="65.045222,113.9364"
       id="path-effect8"
       is_visible="true"
       lpeversion="1"
       deform_type="perspective"
       horizontal_mirror="false"
       vertical_mirror="false"
       overflow_perspective="false" /><inkscape:path-effect
       effect="perspective-envelope"
       up_left_point="30.594863,52.907026"
       up_right_point="114.00557,52.907026"
       down_left_point="30.594863,63.885464"
       down_right_point="114.00557,63.885464"
       id="path-effect7"
       is_visible="true"
       lpeversion="1"
       deform_type="perspective"
       horizontal_mirror="false"
       vertical_mirror="false"
       overflow_perspective="false" /><inkscape:path-effect
       effect="knot"
       id="path-effect3"
       is_visible="true"
       lpeversion="1"
       switcher_size="15.2"
       interruption_width="3"
       prop_to_stroke_width="true"
       add_stroke_width="inkscape_1.0_and_up"
       both="false"
       inverse_width="false"
       add_other_stroke_width="inkscape_1.0_and_up"
       crossing_points_vector="" /><inkscape:path-effect
       effect="bend_path"
       id="path-effect2"
       is_visible="true"
       lpeversion="1"
       bendpath="m 30.594863,58.396245 c 20.942437,-19.528185 55.613249,-0.0039 83.410707,0"
       prop_scale="1"
       scale_y_rel="false"
       vertical="false"
       hide_knot="false"
       bendpath-nodetypes="cc" /><inkscape:path-effect
       effect="bend_path"
       id="path-effect1"
       is_visible="true"
       lpeversion="1"
       bendpath="M 30.594863,58.396245 H 114.00557"
       prop_scale="1.71"
       scale_y_rel="false"
       vertical="false"
       hide_knot="false" /><inkscape:path-effect
       effect="envelope"
       id="path-effect11-1"
       is_visible="true"
       lpeversion="1"
       yy="true"
       xx="true"
       bendpath1="M 33.866669,92.167919 65.045227,82.757843"
       bendpath2="M 65.045222,82.757798 V 113.9364"
       bendpath3="M 33.866666,113.9364 65.045225,101.70324"
       bendpath4="M 33.866666,82.757798 V 113.9364"
       bendpath1-nodetypes="cc"
       bendpath3-nodetypes="cc" /><inkscape:path-effect
       effect="envelope"
       id="path-effect11-9"
       is_visible="true"
       lpeversion="1"
       yy="true"
       xx="true"
       bendpath1="M 33.866669,91.882749 65.045227,82.757843"
       bendpath2="M 65.045222,82.757798 V 113.9364"
       bendpath3="M 33.866666,113.9364 65.045225,103.50931"
       bendpath4="M 33.866666,82.757798 V 113.9364"
       bendpath1-nodetypes="cc"
       bendpath3-nodetypes="cc" /><inkscape:path-effect
       effect="envelope"
       id="path-effect11-6"
       is_visible="true"
       lpeversion="1"
       yy="true"
       xx="true"
       bendpath1="M 33.866669,91.882749 65.045227,82.757843"
       bendpath2="M 65.045222,82.757798 V 113.9364"
       bendpath3="M 33.866666,113.9364 65.045225,103.50931"
       bendpath4="M 33.866666,82.757798 V 113.9364"
       bendpath1-nodetypes="cc"
       bendpath3-nodetypes="cc" /></defs><g
     inkscape:label="Layer 1"
     inkscape:groupmode="layer"
     id="layer1"
     transform="translate(-165.62916,-127.26458)"><path
       id="rect7-0-7-7-1"
       style="fill:#1a1a1a;stroke-width:1.05833;stroke-linecap:round"
       d="m 171.20208,127.26458 22.81149,7.95591 9.78452,42.0811 -38.16893,-6.58708 z"
       sodipodi:nodetypes="ccccc" /><path
       d="m 170.03877,161.70294 c -0.45416,0.11375 -0.87662,-0.27338 -1.23105,-1.34926 -0.36024,-1.11636 -0.62466,-2.81987 -0.80784,-5.27682 -0.17753,-2.42724 -0.25264,-5.41505 -0.25309,-8.55365 -4.6e-4,-3.16904 0.0737,-5.50915 0.25212,-7.09383 0.18243,-1.58848 0.45446,-2.35832 0.82108,-2.74884 0.34957,-0.37238 0.81464,-0.37823 1.28063,-0.25039 0.11586,0.0318 0.21202,0.0679 0.28728,0.10999 0.0761,0.0347 0.14666,0.0716 0.21159,0.11139 0.0649,0.0398 0.13878,0.082 0.22133,0.12625 0.0867,0.0367 0.19494,0.0695 0.32498,0.0965 -0.005,0.8131 0.0481,2.49793 0.10313,4.46282 -0.0174,-0.003 -0.0348,-0.007 -0.0522,-0.01 -0.0408,-1.18947 -0.11651,-2.09534 -0.22544,-2.78647 -0.10501,-0.70322 -0.2358,-1.14926 -0.3963,-1.45525 -0.15356,-0.3092 -0.33956,-0.46355 -0.54389,-0.52069 -0.19898,-0.0556 -0.40469,-0.007 -0.58218,0.21884 -0.18186,0.23163 -0.33797,0.63221 -0.46224,1.35797 -0.12516,0.74611 -0.21405,1.79842 -0.27596,3.32021 -0.0579,1.48569 -0.0828,3.37166 -0.0831,5.58546 -4.8e-4,2.94418 0.0432,5.68896 0.1539,7.92322 0.11196,2.23128 0.2791,3.79931 0.50951,4.86044 0.22652,1.021 0.49956,1.42959 0.79244,1.3628 0.33612,-0.0767 0.59898,-0.72469 0.79856,-2.02261 0.20327,-1.32387 0.33678,-3.27111 0.39457,-5.91136 0.0174,-1e-4 0.0348,-2.3e-4 0.0521,-3.7e-4 -0.0543,2.66941 -0.11185,5.52118 -0.10385,7.59276 -0.16525,0.0432 -0.30947,0.11997 -0.43393,0.23295 -0.12365,0.13293 -0.24408,0.25498 -0.36119,0.36605 -0.1128,0.13006 -0.24354,0.21484 -0.391,0.25178 0,0 0,2e-5 0,2e-5 z m 1.41077,-0.79174 c -0.003,-0.0976 -0.006,-0.19628 -0.008,-0.29608 1e-5,0 0.0211,-0.005 0.0211,-0.005 0.12627,-0.0328 0.22215,-0.27641 0.28966,-0.7449 0.0679,-0.47097 0.0967,-1.09281 0.0901,-1.90514 -0.052,-6.43566 -0.0548,-15.34707 0.001,-19.42455 0.007,-0.51427 -0.0212,-0.86163 -0.0886,-1.10904 -0.0664,-0.24351 -0.16338,-0.35762 -0.28899,-0.38133 0,0 -0.0211,-0.004 -0.0211,-0.004 0.003,-0.0455 0.006,-0.0892 0.009,-0.13117 0.56216,0.10607 1.12435,0.18304 1.68658,0.23381 -0.003,0.0429 -0.007,0.0875 -0.01,0.13386 0,0 -0.0105,-9.8e-4 -0.0105,-9.8e-4 -0.12467,-0.0116 -0.23714,0.0752 -0.3234,0.29855 -0.0878,0.22738 -0.13735,0.56395 -0.14536,1.07878 -0.0231,1.48256 -0.0104,4.27503 -0.007,6.83644 0.57316,0.0457 1.14691,0.0699 1.72123,0.0759 -0.002,-2.53652 -0.0111,-5.25523 0.0177,-6.7734 0.01,-0.51722 -0.0159,-0.86545 -0.0814,-1.10761 -0.0645,-0.23857 -0.16017,-0.34143 -0.28593,-0.34711 0,0 -0.0158,-7.2e-4 -0.0158,-7.2e-4 0.003,-0.047 0.007,-0.0922 0.0102,-0.13571 0.56226,0.0245 1.12456,0.0244 1.68689,0.002 -0.004,0.0451 -0.008,0.0918 -0.0111,0.14027 -0.005,1.9e-4 -0.0105,3.8e-4 -0.0158,5.7e-4 -0.12474,0.004 -0.23816,0.10953 -0.32635,0.3499 -0.0897,0.24442 -0.14164,0.59368 -0.15218,1.11354 -0.0188,0.9246 -0.0371,15.90007 -0.002,18.44534 0.01,0.72117 0.0614,1.24304 0.15053,1.60425 0.0886,0.35882 0.19985,0.49885 0.32549,0.45554 0,-1e-5 0.0158,-0.005 0.0158,-0.005 0.003,0.0808 0.007,0.16042 0.0106,0.23866 -0.56223,0.20088 -1.12441,0.39656 -1.68655,0.58374 -0.003,-0.0856 -0.007,-0.17242 -0.01,-0.26047 1e-5,0 0.0158,-0.005 0.0158,-0.005 0.12626,-0.0404 0.22118,-0.2639 0.28665,-0.68772 0.0659,-0.42662 0.0922,-0.98831 0.0829,-1.72948 -0.0298,-2.3806 -0.0138,-8.55961 -0.0156,-11.3924 -0.57427,-0.003 -1.14795,-0.024 -1.72106,-0.0662 0.004,3.87156 -0.0284,8.27358 0.005,11.82631 0.008,0.79023 0.0565,1.37459 0.1438,1.78684 0.0868,0.40998 0.19683,0.5794 0.32255,0.54143 0,0 0.0105,-0.003 0.0105,-0.003 0.003,0.0919 0.006,0.1827 0.009,0.27225 -0.56209,0.17754 -1.12413,0.34489 -1.68613,0.49874 z m 4.17896,-1.34223 c -0.004,-0.0785 -0.007,-0.15835 -0.0106,-0.23946 0,0 0.005,-0.002 0.005,-0.002 0.12624,-0.0435 0.2207,-0.25399 0.28514,-0.65083 0.0649,-0.39983 0.09,-0.92605 0.0794,-1.62602 -0.0395,-2.59871 -0.023,-17.09461 0.002,-18.25561 0.0112,-0.52264 -0.0133,-0.87478 -0.0777,-1.11673 -0.0635,-0.23853 -0.15854,-0.33664 -0.28439,-0.33244 0,0 -0.005,1.7e-4 -0.005,1.7e-4 0.004,-0.0484 0.007,-0.0951 0.011,-0.14008 0.55705,-0.0201 1.11414,-0.0618 1.67125,-0.12209 -0.004,0.047 -0.008,0.0956 -0.0117,0.14581 0,0 -0.005,5.5e-4 -0.005,5.5e-4 -0.12479,0.013 -0.23863,0.12962 -0.3278,0.38203 -0.0906,0.25649 -0.14376,0.61622 -0.15556,1.14291 -0.0306,1.36476 -0.0452,15.46355 -0.002,18.07984 0.0112,0.68122 0.0638,1.16709 0.15386,1.49938 0.0894,0.32981 0.20138,0.4538 0.32695,0.40886 0,0 0.005,-0.002 0.005,-0.002 0.004,0.0744 0.007,0.14748 0.0113,0.21916 -0.55704,0.20583 -1.11403,0.40966 -1.67098,0.60826 z m 3.88258,-1.16423 c -0.41543,0.1596 -0.82342,0.0388 -1.16652,-0.58156 -0.34838,-0.65191 -0.61529,-1.76357 -0.80439,-3.57932 -0.1837,-1.81832 -0.2672,-4.22593 -0.26724,-6.96154 -5e-5,-2.7387 0.0835,-4.94393 0.26774,-6.55986 0.18901,-1.64468 0.45874,-2.5953 0.80674,-3.21153 0.33819,-0.60372 0.7605,-0.87628 1.16949,-0.95583 0.41635,-0.081 0.77148,0.0429 1.04888,0.57729 0.2879,0.53341 0.50728,1.48041 0.67101,3.11986 0.16709,1.61704 0.25794,3.81534 0.25794,6.48548 1e-5,2.67334 -0.0909,4.93765 -0.25858,6.69445 -0.16415,1.73541 -0.38547,2.8695 -0.67336,3.65171 -0.27892,0.75085 -0.63545,1.16094 -1.05171,1.32085 z m -0.0208,-0.29575 c 0.18152,-0.0666 0.33947,-0.29587 0.47124,-0.71897 0.13318,-0.42764 0.24329,-1.03589 0.337,-1.91911 0.0904,-0.88397 0.16223,-2.03681 0.21491,-3.5099 0.0564,-1.48026 0.0869,-3.20426 0.0869,-5.12347 -1e-5,-1.91777 -0.0305,-3.59812 -0.0864,-4.99986 -0.0522,-1.41703 -0.12289,-2.4715 -0.21201,-3.23273 -0.0925,-0.75949 -0.20111,-1.22839 -0.33321,-1.51718 -0.13025,-0.28472 -0.28831,-0.38035 -0.46948,-0.34629 -0.17917,0.0337 -0.36563,0.19371 -0.53188,0.52177 -0.16938,0.33423 -0.31857,0.82745 -0.43901,1.60104 -0.12481,0.77941 -0.21636,1.81878 -0.27923,3.24882 -0.0587,1.39494 -0.0853,3.10646 -0.0852,5.04293 3e-5,1.93504 0.0264,3.72347 0.0849,5.23275 0.0624,1.51933 0.15284,2.68002 0.27641,3.56024 0.11932,0.87598 0.26663,1.43511 0.43516,1.78029 0.16649,0.341 0.3494,0.44592 0.52997,0.37967 z m 3.13493,-1.07325 c -0.002,-0.0536 -0.005,-0.10884 -0.007,-0.1656 0,0 0.005,-0.002 0.005,-0.002 0.12607,-0.0409 0.22003,-0.19361 0.2822,-0.48578 0.063,-0.2959 0.0856,-0.6925 0.0722,-1.2494 -0.0727,-3.01836 -0.0553,-17.06511 0.0677,-18.97389 -0.051,0.0138 -0.10197,0.0275 -0.15296,0.0411 -0.17047,0.0455 -0.34938,0.18614 -0.52397,0.43044 -0.17451,0.23237 -0.33705,0.63535 -0.47215,1.29484 -0.13662,0.65326 -0.2315,1.63502 -0.28042,3.16697 -0.0176,0.003 -0.0351,0.006 -0.0527,0.009 0.0573,-2.00604 0.12977,-3.76726 0.2655,-4.86161 1.09526,-0.27662 2.19064,-0.59589 3.28615,-0.93639 -0.0365,1.20147 -0.006,3.09501 0.0355,5.14589 -0.0176,0.003 -0.0352,0.007 -0.0528,0.0101 -0.0359,-1.54579 -0.1037,-2.57727 -0.21039,-3.22931 -0.10278,-0.65051 -0.22946,-1.00762 -0.38774,-1.16612 -0.15317,-0.17219 -0.32099,-0.22112 -0.49935,-0.17013 -0.0457,0.0131 -0.0914,0.0261 -0.13716,0.0391 -0.12476,1.99372 -0.13839,16.12404 -0.0677,18.99661 0.0134,0.54476 0.0682,0.90888 0.15988,1.14786 0.0906,0.23608 0.20449,0.3148 0.32966,0.27844 0.006,0.051 0.0115,0.10034 0.0176,0.148 -0.55917,0.16691 -1.1183,0.34531 -1.67738,0.53198 z m 6.18521,-1.41546 c -0.93818,-1.55567 -2.1374,-13.33268 -2.86199,-18.40059 -0.0215,-0.15159 -0.0461,-0.29869 -0.0739,-0.44096 -0.0243,-0.14309 -0.0471,-0.25797 -0.0688,-0.34732 -0.072,2.30671 -0.0712,15.25409 -0.032,17.49337 0.0118,0.67424 0.0739,1.15131 0.18383,1.48702 0.10777,0.32905 0.24706,0.43494 0.3957,0.40044 0.004,0.0464 0.008,0.0911 0.012,0.134 -0.36581,0.0875 -0.73161,0.18157 -1.09739,0.28139 -0.004,-0.0456 -0.008,-0.093 -0.0122,-0.14198 0.15386,-0.0408 0.266,-0.21677 0.33761,-0.59075 0.073,-0.38108 0.10213,-0.88489 0.0902,-1.57686 -0.0418,-2.42023 -0.0406,-15.53319 0.0437,-17.79078 -0.13763,-0.47157 -0.29031,-0.67208 -0.46128,-0.68355 0.004,-0.0652 0.008,-0.12896 0.0126,-0.19132 0.45193,-0.14132 0.90387,-0.28606 1.35584,-0.43274 0.47263,3.12343 1.2652,10.15359 1.96432,15.25731 -0.002,-2.26766 -0.006,-10.88665 0.0217,-12.97976 0.0111,-0.83847 -0.019,-1.48359 -0.0926,-1.96562 -0.0729,-0.47719 -0.18198,-0.66004 -0.33313,-0.61158 0.004,-0.0733 0.008,-0.14534 0.012,-0.21601 -0.88958,0.29348 1.98185,-0.65341 1.09227,-0.35993 -0.004,0.0742 -0.008,0.14965 -0.0117,0.22639 -0.14941,0.0476 -0.28695,0.31922 -0.39495,0.85488 -0.10943,0.54283 -0.17091,1.20957 -0.18196,2.05118 -0.0667,5.0819 -0.0244,17.64204 0.10006,18.54377 z m 2.59535,-0.24325 c -0.40651,0.0112 -0.8302,-0.076 -1.16355,-0.49551 -0.34695,-0.45016 -0.61528,-1.25359 -0.80528,-2.77786 -0.18507,-1.52987 -0.26997,-3.69711 -0.27002,-6.4145 -4e-5,-2.72255 0.0849,-5.12817 0.27049,-7.03423 0.19069,-1.94329 0.46014,-3.24838 0.80747,-4.17203 0.34222,-0.91725 0.75225,-1.41233 1.16611,-1.54857 0.41989,-0.13823 0.77043,0.11058 1.05923,0.93714 0.2953,0.81404 0.52581,2.17188 0.70022,4.2349 0.17755,2.03352 0.27686,4.6254 0.27699,7.49025 1.3e-4,2.86382 -0.0991,5.05256 -0.27717,6.57456 -0.17441,1.50365 -0.40717,2.2689 -0.70241,2.69297 -0.27798,0.39504 -0.65435,0.50161 -1.06208,0.51288 z m -0.0185,-0.14901 c 0.17947,-0.004 0.34353,-0.0899 0.47645,-0.31755 0.13636,-0.23354 0.25177,-0.6142 0.35087,-1.2847 0.0955,-0.67026 0.17379,-1.63576 0.23123,-3.00056 0.0612,-1.36954 0.0949,-3.07115 0.0948,-5.09523 -1.2e-4,-2.02504 -0.034,-3.91677 -0.0948,-5.57206 -0.0571,-1.67317 -0.13407,-3.01307 -0.22883,-4.02815 -0.0983,-1.0144 -0.21141,-1.70115 -0.3472,-2.14223 -0.13471,-0.43757 -0.29218,-0.60034 -0.47452,-0.54299 -0.18076,0.0568 -0.36316,0.32588 -0.52941,0.82898 -0.16813,0.50879 -0.31552,1.22306 -0.43475,2.22848 -0.12365,1.0135 -0.21415,2.28644 -0.27651,3.90878 -0.0581,1.58112 -0.0843,3.42237 -0.0843,5.37834 6e-5,1.95502 0.0264,3.65153 0.0841,5.00214 0.0619,1.36426 0.1516,2.32631 0.27395,3.01618 0.11789,0.68471 0.2643,1.07518 0.4312,1.31313 0.16257,0.23176 0.34958,0.31112 0.52779,0.30744 z m 2.25112,0.11536 c -0.003,-0.0308 -0.006,-0.0636 -0.009,-0.0984 0,0 0.005,6e-4 0.005,6e-4 0.12539,0.0141 0.22353,-0.0444 0.28939,-0.21964 0.0675,-0.17955 0.0959,-0.46057 0.0885,-0.92045 -0.0588,-3.64685 -0.0616,-12.62117 0.001,-18.88496 0.008,-0.79107 -0.0199,-1.37965 -0.0869,-1.79493 -0.067,-0.41573 -0.16179,-0.58805 -0.28855,-0.55418 0,0 -0.005,0.001 -0.005,0.001 0.003,-0.0925 0.006,-0.18387 0.01,-0.27404 0.55776,-0.156 1.11555,-0.30312 1.67338,-0.43853 -0.003,0.0973 -0.006,0.1957 -0.009,0.29522 0,0 -0.005,0.001 -0.005,0.001 -0.12592,0.0289 -0.23614,0.26933 -0.32277,0.73529 -0.0872,0.46924 -0.13627,1.08884 -0.14325,1.90218 -0.0553,6.43853 -0.0525,15.51178 -10e-4,19.15481 0.006,0.45962 0.055,0.75186 0.14177,0.95561 0.0846,0.19854 0.19776,0.28986 0.3221,0.31741 0,0 0.005,0.001 0.005,0.001 0.003,0.0336 0.005,0.0652 0.008,0.0946 -0.55798,-0.12295 -1.11592,-0.21336 -1.67382,-0.27443 z m 1.61046,0.26059 c -0.003,-0.0295 -0.006,-0.0611 -0.008,-0.0948 0.12527,0.0273 0.22446,-0.0173 0.29163,-0.18112 0.0689,-0.16803 0.0992,-0.44201 0.0937,-0.90184 -0.0436,-3.64667 -0.0464,-12.82204 9.9e-4,-19.43545 0.006,-0.83524 -0.0237,-1.46347 -0.0922,-1.91089 -0.0685,-0.44795 -0.16402,-0.63914 -0.29081,-0.60984 0.003,-0.0993 0.006,-0.1974 0.009,-0.29439 0.58774,-0.14361 1.17551,-0.27433 1.76332,-0.38889 0.25302,-0.0493 0.46691,0.17063 0.64439,0.70961 0.18195,0.51766 0.3205,1.30715 0.42068,2.42005 0.10374,1.08695 0.16033,2.43454 0.16658,4.02244 0.008,2.0135 -0.064,3.73058 -0.22245,5.11347 -0.15778,1.37702 -0.37644,2.1367 -0.65156,2.35464 0.0609,0.14378 0.13197,0.54789 0.21354,1.2009 0.0854,0.65584 0.16484,1.43821 0.24059,2.32884 0.21349,2.55911 0.4224,4.77362 0.65591,6.01652 0.0525,0.26946 0.11553,0.45647 0.18639,0.59633 0.0729,0.1316 0.15572,0.21183 0.2388,0.2531 0.002,0.033 0.004,0.0639 0.006,0.0924 -0.36448,-0.1814 -0.72895,-0.34599 -1.09339,-0.49465 -0.0598,-0.1516 -0.12092,-0.36225 -0.18337,-0.65245 -0.0585,-0.28677 -0.11134,-0.6144 -0.15838,-0.94307 -0.17605,-1.27314 -0.34128,-3.15929 -0.50786,-5.263 -0.0624,-0.7873 -0.11512,-1.40759 -0.16158,-1.86859 -0.0422,-0.47857 -0.0865,-0.81503 -0.13289,-1.00139 -0.0428,-0.18553 -0.098,-0.28532 -0.16592,-0.2986 -0.0179,-0.004 -0.0357,-0.007 -0.0536,-0.0104 -0.001,3.45946 -0.0303,6.53097 -0.0134,8.28934 0.004,0.46146 0.051,0.75627 0.13633,0.96681 0.083,0.20481 0.19553,0.30691 0.31982,0.34881 0,0 0.0106,0.004 0.0106,0.004 0.002,0.033 0.005,0.0639 0.007,0.0926 -0.55631,-0.1877 -1.11257,-0.34002 -1.66878,-0.46013 z m 1.20844,-9.73608 c 0.091,0.0167 0.18209,0.0341 0.27316,0.0521 0.23171,0.0458 0.41678,-0.55076 0.54982,-1.8577 0.13775,-1.31727 0.19918,-3.06655 0.19222,-5.2311 -0.007,-2.16948 -0.0719,-3.81938 -0.19312,-4.96886 -0.121,-1.17319 -0.27999,-1.65995 -0.49491,-1.62053 -0.10217,0.0187 -0.20434,0.038 -0.30651,0.0576 -0.0679,3.02865 -0.0212,9.73739 -0.0206,13.56843 z"
       id="text1-3-7-2-7"
       style="font-size:14.1111px;line-height:0.8;font-family:Gloock;-inkscape-font-specification:Gloock;text-align:center;text-anchor:middle;fill:#ffffff;stroke:#000000;stroke-width:0.529167;stroke-linecap:round;stroke-dasharray:none;stroke-opacity:1;paint-order:stroke fill markers"
       aria-label="CHIOTNOIR" /><path
       style="fill:#000000;fill-opacity:1;stroke:#ffee00;stroke-width:0.529167;stroke-linecap:round;stroke-dasharray:none;stroke-opacity:1;paint-order:stroke fill markers"
       d="m 184.15819,156.7193 c 0,0 -0.69412,-0.29748 -1.09076,-0.16527 -0.39663,0.13221 -1.71876,0.52885 -1.71876,0.82633 0,0.29748 0.13221,1.35518 0.72717,1.98319 0,0 0.72717,3.60279 1.15686,4.59438 0,0 -0.52885,1.42129 0,2.31372 0.52885,0.89244 1.38823,2.37983 1.45434,3.6689 0.0661,1.28907 -0.0331,1.78487 0.29748,2.18151 0,0 -1.38824,1.1238 -0.79328,1.5535 0.59496,0.42969 2.04929,0.23137 2.6773,-0.66107 0.62801,-0.89243 0.85939,-3.47058 0.85939,-3.47058 0,0 0.39663,0.76022 0.26442,1.52045 -0.13221,0.76022 -0.0992,2.04929 -0.0992,2.04929 0,0 -1.35518,1.5535 -0.13221,1.78487 1.22297,0.23137 2.14846,-0.52885 2.44594,-1.15686 0.29748,-0.62801 1.05769,-4.46217 1.05769,-4.46217 0,0 4.03248,0.19832 5.25545,-1.65266 0,0 1.52044,1.85098 1.78487,3.40447 0.26442,1.5535 -0.46274,2.14846 -0.79328,2.31372 -0.33053,0.16527 -1.02464,1.28908 0.56191,1.12381 1.58655,-0.16527 2.1815,-0.79327 2.57814,-1.58655 0.39664,-0.79328 0.39664,-1.18991 0.39664,-1.18991 0,0 -0.16527,0.76022 0.0661,0.79327 0.23137,0.0331 0.52885,-0.42969 0.76022,-1.18991 0.23137,-0.76022 0.76022,-2.0493 0.23137,-2.64425 -0.52885,-0.59496 -1.22297,-1.78487 -0.99159,-2.64425 0.23137,-0.85938 0.85938,-1.81793 0.0331,-3.37142 0,0 2.96846,-1.63017 2.87497,-2.91564 -0.0935,-1.28546 -1.51918,-2.40732 -4.13686,-1.93988 0,0 0.0555,0.2694 0.34466,0.45119 0.28922,0.18179 1.90882,0.79327 1.81793,1.04117 -0.0909,0.2479 -2.81778,1.09076 -3.00784,1.09902 -0.19005,0.008 -2.26324,-0.53463 -4.24986,-0.72161 -1.98663,-0.18698 -4.51081,-0.0234 -4.93151,0 0,0 -0.0735,-0.39393 -0.28834,-0.66662 0,0 0.52885,-0.69412 0.58669,-1.31387 0.0578,-0.61974 0.0248,-0.99159 -0.0496,-1.04117 -0.0744,-0.0496 -0.38011,-0.13221 -0.43795,-0.33879 -0.0579,-0.20659 -0.16527,-0.72717 -0.85939,-0.66933 -0.69412,0.0578 -1.44608,0.99986 -1.44608,0.99986 0,0 -1.80139,-0.17353 -3.20615,0.0992 z"
       id="path1-7-8-58-5" /></g></svg>
